HIERARCHY
ROOT Hips
{
	OFFSET 0.000001 107.585541 -0.292875
	CHANNELS 6 Xposition Yposition Zposition Xrotation Yrotation Zrotation
	JOINT Spine
	{
		OFFSET -0.023067 13.156998 0.957426
		CHANNELS 6 Xposition Yposition Zposition Xrotation Yrotation Zrotation
		JOINT Spine1
		{
			OFFSET 0.000000 9.894669 0.072741
			CHANNELS 3 Xrotation Yrotation Zrotation
			JOINT Spine2
			{
				OFFSET 0.000000 10.499985 -0.058234
				CHANNELS 3 Xrotation Yrotation Zrotation
				JOINT Neck
				{
					OFFSET -0.000000 26.776306 -4.691216
					CHANNELS 6 Xposition Yposition Zposition Xrotation Yrotation Zrotation
					JOINT Head
					{
						OFFSET 0.000000 14.063217 3.449322
						CHANNELS 6 Xposition Yposition Zposition Xrotation Yrotation Zrotation
						JOINT HeadTop_End
						{
							OFFSET 0.000000 19.645248 2.611582
							CHANNELS 6 Xposition Yposition Zposition Xrotation Yrotation Zrotation
							End Site
							{
								OFFSET 0.000000 14.113129 0.000000
							}
						}
						JOINT L_Eye
						{
							OFFSET 3.570282 7.264572 7.838836
							CHANNELS 6 Xposition Yposition Zposition Xrotation Yrotation Zrotation
							End Site
							{
								OFFSET 0.000000 14.113129 0.000000
							}
						}
						JOINT R_Eye
						{
							OFFSET -3.524154 7.264282 7.838838
							CHANNELS 6 Xposition Yposition Zposition Xrotation Yrotation Zrotation
							End Site
							{
								OFFSET 0.000000 14.113129 0.000000
							}
						}
					}
				}
				JOINT L_Shoulder
				{
					OFFSET 7.980431 21.886398 -6.266449
					CHANNELS 6 Xposition Yposition Zposition Xrotation Yrotation Zrotation
					JOINT L_Arm
					{
						OFFSET 10.677479 -5.478394 -0.078065
						CHANNELS 3 Xrotation Yrotation Zrotation
						JOINT L_ForeArm
						{
							OFFSET 27.567778 0.000015 0.000000
							CHANNELS 3 Xrotation Yrotation Zrotation
							JOINT L_Hand
							{
								OFFSET 27.500092 -0.000015 0.480016
								CHANNELS 3 Xrotation Yrotation Zrotation
								JOINT L_HandThumb1
								{
									OFFSET 5.751503 -2.607742 4.214736
									CHANNELS 6 Xposition Yposition Zposition Xrotation Yrotation Zrotation
									JOINT L_HandThumb2
									{
										OFFSET 2.728218 -1.585464 1.645159
										CHANNELS 6 Xposition Yposition Zposition Xrotation Yrotation Zrotation
										JOINT L_HandThumb3
										{
											OFFSET 2.690651 -1.563644 1.622507
											CHANNELS 6 Xposition Yposition Zposition Xrotation Yrotation Zrotation
											JOINT L_HandThumb4
											{
												OFFSET 2.811111 -1.633636 1.695147
												CHANNELS 6 Xposition Yposition Zposition Xrotation Yrotation Zrotation
												End Site
												{
													OFFSET 2.811104 -1.633652 1.695142
												}
											}
										}
									}
								}
								JOINT L_HandIndex1
								{
									OFFSET 13.704086 -1.118973 2.963548
									CHANNELS 6 Xposition Yposition Zposition Xrotation Yrotation Zrotation
									JOINT L_HandIndex2
									{
										OFFSET 2.538002 -0.000046 0.044317
										CHANNELS 3 Xrotation Yrotation Zrotation
										JOINT L_HandIndex3
										{
											OFFSET 3.551018 0.000015 0.062044
											CHANNELS 3 Xrotation Yrotation Zrotation
											JOINT L_HandIndex4
											{
												OFFSET 3.082214 0.000031 0.053894
												CHANNELS 3 Xrotation Yrotation Zrotation
												End Site
												{
													OFFSET 3.082214 0.000046 0.053895
												}
											}
										}
									}
								}
								JOINT L_HandMiddle1
								{
									OFFSET 13.314011 -0.054794 0.195248
									CHANNELS 6 Xposition Yposition Zposition Xrotation Yrotation Zrotation
									JOINT L_HandMiddle2
									{
										OFFSET 4.054405 -0.000015 0.070800
										CHANNELS 3 Xrotation Yrotation Zrotation
										JOINT L_HandMiddle3
										{
											OFFSET 2.984230 -0.000031 0.052059
											CHANNELS 3 Xrotation Yrotation Zrotation
											JOINT L_HandMiddle4
											{
												OFFSET 3.040154 -0.000031 0.053016
												CHANNELS 3 Xrotation Yrotation Zrotation
												End Site
												{
													OFFSET 3.040154 0.000000 0.053016
												}
											}
										}
									}
								}
								JOINT L_HandRing1
								{
									OFFSET 12.889366 0.014862 -3.304775
									CHANNELS 6 Xposition Yposition Zposition Xrotation Yrotation Zrotation
									JOINT L_HandRing2
									{
										OFFSET 4.066383 0.000000 0.071006
										CHANNELS 3 Xrotation Yrotation Zrotation
										JOINT L_HandRing3
										{
											OFFSET 2.688652 0.000061 0.047021
											CHANNELS 3 Xrotation Yrotation Zrotation
											JOINT L_HandRing4
											{
												OFFSET 2.892899 0.000000 0.050566
												CHANNELS 3 Xrotation Yrotation Zrotation
												End Site
												{
													OFFSET 2.892906 0.000015 0.050566
												}
											}
										}
									}
								}
								JOINT L_HandPinky1
								{
									OFFSET 12.770164 -1.052109 -6.055603
									CHANNELS 6 Xposition Yposition Zposition Xrotation Yrotation Zrotation
									JOINT L_HandPinky2
									{
										OFFSET 3.092682 -0.000046 0.054011
										CHANNELS 3 Xrotation Yrotation Zrotation
										JOINT L_HandPinky3
										{
											OFFSET 2.176254 0.000031 0.038088
											CHANNELS 3 Xrotation Yrotation Zrotation
											JOINT L_HandPinky4
											{
												OFFSET 2.208496 -0.000031 0.038607
												CHANNELS 3 Xrotation Yrotation Zrotation
												End Site
												{
													OFFSET 2.208504 -0.000031 0.038607
												}
											}
										}
									}
								}
							}
						}
					}
				}
				JOINT R_Shoulder
				{
					OFFSET -7.980434 21.886810 -6.266449
					CHANNELS 6 Xposition Yposition Zposition Xrotation Yrotation Zrotation
					JOINT R_Arm
					{
						OFFSET -10.677509 -5.479004 -0.078070
						CHANNELS 3 Xrotation Yrotation Zrotation
						JOINT R_ForeArm
						{
							OFFSET -27.567785 0.000000 -0.000000
							CHANNELS 3 Xrotation Yrotation Zrotation
							JOINT R_Hand
							{
								OFFSET -27.500015 0.000000 0.480015
								CHANNELS 3 Xrotation Yrotation Zrotation
								JOINT R_HandThumb1
								{
									OFFSET -5.971848 -2.424500 3.942988
									CHANNELS 6 Xposition Yposition Zposition Xrotation Yrotation Zrotation
									JOINT R_HandThumb2
									{
										OFFSET -2.728195 -1.584976 1.645155
										CHANNELS 6 Xposition Yposition Zposition Xrotation Yrotation Zrotation
										JOINT R_HandThumb3
										{
											OFFSET -2.690704 -1.563995 1.622524
											CHANNELS 6 Xposition Yposition Zposition Xrotation Yrotation Zrotation
											JOINT R_HandThumb4
											{
												OFFSET -2.811142 -1.633011 1.695130
												CHANNELS 6 Xposition Yposition Zposition Xrotation Yrotation Zrotation
												End Site
												{
													OFFSET -2.811142 -1.632996 1.695138
												}
											}
										}
									}
								}
								JOINT R_HandIndex1
								{
									OFFSET -13.521736 -0.054581 0.198885
									CHANNELS 6 Xposition Yposition Zposition Xrotation Yrotation Zrotation
									JOINT R_HandIndex2
									{
										OFFSET -4.381210 0.000015 0.076519
										CHANNELS 3 Xrotation Yrotation Zrotation
										JOINT R_HandIndex3
										{
											OFFSET -3.478577 0.000031 0.060751
											CHANNELS 3 Xrotation Yrotation Zrotation
											JOINT R_HandIndex4
											{
												OFFSET -6.319054 -0.000015 0.110473
												CHANNELS 3 Xrotation Yrotation Zrotation
												End Site
												{
													OFFSET -6.319061 0.000015 0.110474
												}
											}
										}
									}
								}
								JOINT R_HandRing1
								{
									OFFSET -12.702789 0.785950 -3.722343
									CHANNELS 6 Xposition Yposition Zposition Xrotation Yrotation Zrotation
									JOINT R_HandRing2
									{
										OFFSET -4.066383 0.000000 0.070999
										CHANNELS 3 Xrotation Yrotation Zrotation
										JOINT R_HandRing3
										{
											OFFSET -2.688583 0.000015 0.047006
											CHANNELS 3 Xrotation Yrotation Zrotation
											JOINT R_HandRing4
											{
												OFFSET -2.892967 -0.000015 0.050556
												CHANNELS 3 Xrotation Yrotation Zrotation
												End Site
												{
													OFFSET -2.892960 0.000015 0.050555
												}
											}
										}
									}
								}
								JOINT R_HandPinky1
								{
									OFFSET -12.544357 -0.205673 -6.499258
									CHANNELS 6 Xposition Yposition Zposition Xrotation Yrotation Zrotation
									JOINT R_HandPinky2
									{
										OFFSET -3.092621 0.000000 0.053982
										CHANNELS 3 Xrotation Yrotation Zrotation
										JOINT R_HandPinky3
										{
											OFFSET -2.176262 0.000000 0.037988
											CHANNELS 3 Xrotation Yrotation Zrotation
											JOINT R_HandPinky4
											{
												OFFSET -2.208572 0.000000 0.038550
												CHANNELS 3 Xrotation Yrotation Zrotation
												End Site
												{
													OFFSET -2.208565 0.000000 0.038550
												}
											}
										}
									}
								}
							}
						}
					}
				}
			}
		}
	}
	JOINT L_UpLeg
	{
		OFFSET 10.121319 -5.316734 0.163048
		CHANNELS 6 Xposition Yposition Zposition Xrotation Yrotation Zrotation
		JOINT L_Leg
		{
			OFFSET -0.000002 -40.854481 0.206897
			CHANNELS 3 Xrotation Yrotation Zrotation
			JOINT L_Foot
			{
				OFFSET 0.000002 -52.055374 -3.073691
				CHANNELS 3 Xrotation Yrotation Zrotation
				JOINT L_ToeBase
				{
					OFFSET 1.169127 -9.354687 13.784521
					CHANNELS 6 Xposition Yposition Zposition Xrotation Yrotation Zrotation
					JOINT L_Toe_End
					{
						OFFSET 0.516993 -0.004916 8.312323
						CHANNELS 6 Xposition Yposition Zposition Xrotation Yrotation Zrotation
						End Site
						{
							OFFSET 0.516995 -0.004916 8.312323
						}
					}
				}
			}
		}
	}
	JOINT R_UpLeg
	{
		OFFSET -10.121301 -5.316544 0.163048
		CHANNELS 6 Xposition Yposition Zposition Xrotation Yrotation Zrotation
		JOINT R_Leg
		{
			OFFSET 0.000055 -40.854687 0.206898
			CHANNELS 3 Xrotation Yrotation Zrotation
			JOINT R_Foot
			{
				OFFSET -0.000054 -52.055359 -3.073693
				CHANNELS 3 Xrotation Yrotation Zrotation
				JOINT R_ToeBase
				{
					OFFSET -1.169123 -9.354716 13.784500
					CHANNELS 6 Xposition Yposition Zposition Xrotation Yrotation Zrotation
					JOINT R_Toe_End
					{
						OFFSET -0.516972 -0.004950 8.311937
						CHANNELS 6 Xposition Yposition Zposition Xrotation Yrotation Zrotation
						End Site
						{
							OFFSET -0.516973 -0.004951 8.311935
						}
					}
				}
			}
		}
	}
}
MOTION
Frames: 4
Frame Time: 0.033333
7.058781 95.507675 5.985575 12.606294 -22.763827 2.077395 -0.023066 13.157009 0.957427 2.990149 -0.553298 0.997352 7.622507 -0.641946 1.263129 7.635865 -0.581601 1.196784 -0.000003 26.776306 -4.691216 -5.961610 3.842336 -2.351064 0.000001 14.063209 3.449316 -21.783394 16.957063 -1.148368 0.000000 19.645233 2.611584 0.000000 -0.000000 0.000000 3.570281 7.264587 7.838839 0.000000 -0.000000 0.000000 -3.524153 7.264297 7.838836 0.000000 -0.000000 0.000000 7.980434 21.886400 -6.266449 0.517927 4.762540 -10.396839 -8.057923 -22.287602 -53.261272 -0.000144 -79.201747 -0.000069 17.203430 3.194066 22.148360 5.751507 -2.607741 4.214746 -1.513687 -12.037674 3.400857 2.728228 -1.585461 1.645159 5.421048 29.310486 2.310654 2.690650 -1.563650 1.622510 0.264757 12.225294 3.549615 2.811095 -1.633613 1.695144 -0.000001 0.000007 0.000003 13.704100 -1.118965 2.963553 1.225611 3.263349 -26.856685 1.240143 3.154283 -27.057750 0.432834 1.651093 -13.514735 0.000000 -0.000001 0.000000 13.314023 -0.054770 0.195255 1.224487 3.261681 -26.841448 1.240481 3.154551 -27.071735 0.432251 1.649958 -13.515029 -0.000000 0.000000 0.000000 12.889365 0.014857 -3.304770 1.225628 3.263343 -26.857682 1.240468 3.155197 -27.057180 0.432739 1.649812 -13.514129 0.000000 0.000002 -0.000000 12.770178 -1.052124 -6.055602 3.043188 6.888571 -26.488700 1.258730 -0.906886 -27.498056 0.432742 1.649110 -13.513221 0.000000 0.000005 -0.000000 -7.980447 21.886786 -6.266444 1.803100 5.193003 10.423491 -15.692127 19.494379 66.081623 -0.000119 90.575439 0.000259 22.774156 -6.514606 -2.484181 -5.971848 -2.424526 3.942981 -2.005736 12.265084 -3.938159 -2.728195 -1.585012 1.645166 6.452015 -29.979247 -1.463735 -2.690721 -1.563970 1.622495 -0.367607 -10.520087 -3.116818 -2.811156 -1.632994 1.695142 -0.000004 -0.000002 0.000002 -13.521755 -0.054601 0.198871 1.185981 -3.094007 26.871861 1.199525 -2.983325 27.070983 0.422700 -1.563942 13.522635 0.000002 0.000005 -0.000003 -12.702797 0.785919 -3.722347 1.185843 -3.093741 26.871650 1.200033 -2.984599 27.070915 0.422621 -1.562347 13.522919 0.000001 0.000001 0.000002 -12.544361 -0.205704 -6.499268 1.185710 -3.093473 26.871644 1.199324 -2.983485 27.070893 0.422333 -1.562870 13.522927 -0.000001 -0.000001 0.000001 10.121320 -5.316734 0.163050 -52.784265 7.730586 24.748887 50.750928 9.203595 -1.884768 -7.316629 2.374689 -10.542828 1.169128 -9.354689 13.784521 -0.929894 0.000009 0.000005 0.516999 -0.004915 8.312324 0.000001 0.000003 0.000000 -10.121293 -5.316544 0.163049 -45.363982 -7.975100 -19.804407 42.235977 -5.842432 -1.796817 -5.111543 -1.615402 17.195075 -1.169122 -9.354712 13.784500 -0.003052 0.000020 -0.000000 -0.516975 -0.004952 8.311941 0.000003 0.000004 0.000000 
7.054165 95.612534 5.836105 12.804695 -22.758761 2.186068 -0.023067 13.157012 0.957426 2.941322 -0.501035 0.987061 7.520160 -0.551440 1.201078 7.532708 -0.491788 1.133235 0.000003 26.776297 -4.691213 -6.013608 3.848339 -2.348484 -0.000001 14.063217 3.449319 -21.846020 16.957874 -1.060370 0.000001 19.645203 2.611586 0.000000 0.000000 -0.000000 3.570281 7.264572 7.838835 -0.000000 0.000000 -0.000000 -3.524153 7.264297 7.838837 -0.000000 0.000000 -0.000000 7.980438 21.886396 -6.266448 0.516381 4.774029 -10.396398 -8.071229 -22.032894 -53.241659 -0.000235 -79.247946 -0.000198 17.046457 3.191221 22.150990 5.751507 -2.607746 4.214736 -1.513688 -12.037669 3.400854 2.728219 -1.585476 1.645148 5.421041 29.310483 2.310648 2.690650 -1.563653 1.622504 0.264753 12.225297 3.549615 2.811104 -1.633631 1.695148 0.000001 0.000000 -0.000000 13.704100 -1.118976 2.963544 1.225606 3.263346 -26.856681 1.240139 3.154283 -27.057759 0.432833 1.651090 -13.514737 0.000000 -0.000002 0.000000 13.314015 -0.054773 0.195246 1.224489 3.261679 -26.841452 1.240480 3.154549 -27.071731 0.432251 1.649968 -13.515029 -0.000000 0.000003 -0.000000 12.889350 0.014862 -3.304780 1.225632 3.263343 -26.857685 1.240474 3.155202 -27.057178 0.432737 1.649798 -13.514130 0.000000 0.000004 -0.000000 12.770171 -1.052125 -6.055614 3.043186 6.888571 -26.488693 1.258728 -0.906888 -27.498056 0.432743 1.649115 -13.513219 -0.000000 0.000000 -0.000000 -7.980437 21.886803 -6.266437 1.795917 5.189154 10.344087 -15.595214 19.499985 66.018737 -0.002039 90.593765 0.002385 22.750406 -6.558643 -2.509070 -5.971842 -2.424526 3.942991 -2.005744 12.265090 -3.938163 -2.728210 -1.585002 1.645160 6.452012 -29.979247 -1.463725 -2.690708 -1.563998 1.622520 -0.367604 -10.520087 -3.116820 -2.811179 -1.632994 1.695151 -0.000004 -0.000002 0.000002 -13.521731 -0.054582 0.198904 1.185975 -3.094007 26.871863 1.199535 -2.983327 27.070987 0.422697 -1.563935 13.522636 -0.000000 0.000001 -0.000003 -12.702789 0.785937 -3.722329 1.185840 -3.093741 26.871650 1.200033 -2.984604 27.070917 0.422621 -1.562350 13.522923 0.000004 -0.000003 0.000000 -12.544347 -0.205705 -6.499250 1.185704 -3.093470 26.871648 1.199324 -2.983487 27.070893 0.422333 -1.562876 13.522926 0.000003 0.000002 0.000004 10.121321 -5.316730 0.163046 -52.870415 7.716106 24.850260 50.478353 9.141780 -2.156684 -6.939402 2.373273 -10.362959 1.169127 -9.354691 13.784521 -1.122035 0.000003 0.000003 0.516997 -0.004915 8.312323 0.000001 -0.000001 0.000000 -10.121304 -5.316532 0.163054 -45.453044 -7.963452 -19.708670 41.935995 -5.908176 -1.808707 -4.927673 -1.581300 17.122072 -1.169121 -9.354713 13.784501 -0.003053 0.000019 0.000000 -0.516973 -0.004952 8.311943 0.000003 0.000001 0.000000 
7.024142 95.715904 5.693466 12.996267 -22.734585 2.287819 -0.023068 13.157016 0.957423 2.895150 -0.452474 0.976693 7.424002 -0.467536 1.139235 7.435771 -0.408534 1.069967 -0.000001 26.776306 -4.691218 -6.067059 3.851822 -2.341045 -0.000001 14.063238 3.449315 -21.915007 16.951645 -0.970989 -0.000001 19.645248 2.611582 0.000000 0.000000 0.000000 3.570281 7.264587 7.838835 0.000000 0.000000 0.000000 -3.524154 7.264313 7.838837 0.000000 0.000000 0.000000 7.980431 21.886404 -6.266450 0.514803 4.790333 -10.405161 -8.091925 -21.782921 -53.230314 -0.000079 -79.294221 -0.000004 16.909337 3.186834 22.142152 5.751511 -2.607751 4.214733 -1.513689 -12.037671 3.400856 2.728222 -1.585461 1.645150 5.421042 29.310480 2.310650 2.690650 -1.563636 1.622515 0.264751 12.225293 3.549616 2.811103 -1.633616 1.695151 0.000000 0.000002 0.000003 13.704092 -1.118965 2.963537 1.225612 3.263347 -26.856685 1.240146 3.154281 -27.057759 0.432834 1.651095 -13.514737 -0.000000 0.000000 0.000000 13.314031 -0.054762 0.195245 1.224489 3.261678 -26.841455 1.240481 3.154551 -27.071737 0.432251 1.649964 -13.515030 0.000000 0.000002 0.000000 12.889365 0.014858 -3.304789 1.225632 3.263344 -26.857687 1.240467 3.155200 -27.057176 0.432738 1.649811 -13.514130 0.000000 -0.000001 0.000000 12.770171 -1.052125 -6.055610 3.043185 6.888571 -26.488696 1.258734 -0.906883 -27.498055 0.432741 1.649115 -13.513219 0.000000 0.000002 -0.000000 -7.980440 21.886801 -6.266443 1.789393 5.185992 10.271360 -15.513981 19.501947 65.958952 0.000008 90.607077 0.000203 22.725452 -6.599853 -2.532283 -5.971846 -2.424524 3.942988 -2.005745 12.265091 -3.938159 -2.728197 -1.585018 1.645150 6.452011 -29.979247 -1.463731 -2.690721 -1.563981 1.622506 -0.367606 -10.520085 -3.116819 -2.811152 -1.633016 1.695139 -0.000002 0.000002 0.000004 -13.521732 -0.054586 0.198888 1.185975 -3.094005 26.871865 1.199529 -2.983328 27.070990 0.422704 -1.563936 13.522631 0.000002 0.000001 -0.000001 -12.702789 0.785934 -3.722343 1.185843 -3.093740 26.871653 1.200034 -2.984606 27.070915 0.422620 -1.562345 13.522925 -0.000000 -0.000001 0.000001 -12.544362 -0.205685 -6.499255 1.185705 -3.093469 26.871646 1.199319 -2.983484 27.070891 0.422335 -1.562869 13.522928 -0.000001 0.000002 0.000001 10.121320 -5.316721 0.163044 -52.909719 7.710594 24.802020 50.127544 9.351207 -2.211705 -6.643931 2.246784 -10.344869 1.169122 -9.354692 13.784515 -1.166176 -0.000007 0.000005 0.516995 -0.004915 8.312323 0.000001 0.000000 0.000000 -10.121302 -5.316532 0.163052 -45.556901 -8.040802 -19.668377 41.659854 -5.816879 -1.801193 -4.793492 -1.557891 17.007484 -1.169120 -9.354713 13.784501 -0.003050 0.000026 0.000001 -0.516973 -0.004952 8.311941 0.000003 0.000001 0.000000 
6.973132 95.816925 5.577594 13.178310 -22.689525 2.382363 -0.023066 13.157009 0.957429 2.850558 -0.407143 0.965948 7.332432 -0.389494 1.076279 7.343417 -0.331117 1.005642 -0.000001 26.776312 -4.691211 -6.121394 3.851666 -2.328316 0.000000 14.063176 3.449309 -21.988566 16.933986 -0.882601 0.000001 19.645233 2.611582 -0.000000 -0.000000 0.000000 3.570282 7.264557 7.838833 -0.000000 -0.000000 0.000000 -3.524153 7.264282 7.838841 -0.000000 -0.000000 0.000000 7.980435 21.886421 -6.266448 0.513245 4.813114 -10.426663 -8.122215 -21.539046 -53.222231 -0.000204 -79.338125 -0.000139 16.796169 3.179965 22.124198 5.751504 -2.607754 4.214725 -1.513689 -12.037673 3.400855 2.728224 -1.585449 1.645146 5.421044 29.310480 2.310655 2.690657 -1.563649 1.622505 0.264751 12.225297 3.549615 2.811100 -1.633627 1.695151 0.000000 0.000003 0.000001 13.704100 -1.118991 2.963535 1.225609 3.263348 -26.856683 1.240145 3.154281 -27.057759 0.432835 1.651105 -13.514736 -0.000000 -0.000001 -0.000000 13.314023 -0.054789 0.195231 1.224489 3.261680 -26.841452 1.240480 3.154551 -27.071731 0.432251 1.649967 -13.515028 0.000000 0.000006 0.000000 12.889358 0.014842 -3.304788 1.225630 3.263344 -26.857682 1.240472 3.155199 -27.057175 0.432737 1.649806 -13.514129 -0.000000 0.000004 0.000000 12.770155 -1.052129 -6.055623 3.043184 6.888571 -26.488693 1.258730 -0.906885 -27.498058 0.432741 1.649109 -13.513220 0.000000 0.000008 -0.000000 -7.980432 21.886810 -6.266451 1.783447 5.182585 10.205701 -15.446889 19.497730 65.901558 -0.001688 90.618176 0.001883 22.697533 -6.639419 -2.553856 -5.971832 -2.424520 3.942976 -2.005744 12.265089 -3.938157 -2.728199 -1.585015 1.645160 6.452014 -29.979247 -1.463732 -2.690735 -1.563995 1.622499 -0.367609 -10.520088 -3.116822 -2.811151 -1.632996 1.695154 -0.000005 0.000001 0.000001 -13.521731 -0.054575 0.198888 1.185977 -3.094007 26.871863 1.199526 -2.983325 27.070989 0.422704 -1.563938 13.522635 -0.000001 0.000001 0.000002 -12.702797 0.785945 -3.722345 1.185842 -3.093742 26.871651 1.200034 -2.984601 27.070917 0.422623 -1.562345 13.522927 0.000002 0.000000 -0.000001 -12.544346 -0.205667 -6.499254 1.185702 -3.093473 26.871651 1.199322 -2.983486 27.070891 0.422326 -1.562869 13.522923 0.000001 0.000001 0.000001 10.121319 -5.316714 0.163044 -52.878232 7.745153 24.706497 49.709615 9.635894 -2.174562 -6.570680 2.122286 -10.581684 1.169125 -9.354689 13.784525 -1.103345 -0.000007 0.000001 0.517006 -0.004915 8.312330 0.000001 0.000001 0.000000 -10.121300 -5.316532 0.163057 -45.634867 -8.106188 -19.652013 41.415067 -5.756918 -1.749825 -4.690428 -1.538211 16.887750 -1.169119 -9.354712 13.784502 -0.003052 0.000023 -0.000001 -0.516972 -0.004952 8.311942 0.000003 0.000004 0.000000 
